<svg xmlns="http://www.w3.org/2000/svg" width="15" height="15" viewBox="0 0 15 15">
    <g data-name="그룹 5294">
        <g data-name="그룹 5293">
            <path data-name="패스 1065" d="m14.709 11.927-1.663-1.109-1.478-.985a.655.655 0 0 0-.879.143l-.915 1.176a.651.651 0 0 1-.832.172 10.65 10.65 0 0 1-2.974-2.291 10.726 10.726 0 0 1-2.292-2.974.651.651 0 0 1 .172-.832l1.176-.915a.655.655 0 0 0 .143-.879L4.212 2 3.073.292a.655.655 0 0 0-.882-.2L.878.881a1.6 1.6 0 0 0-.729.943c-.359 1.31-.432 4.2 4.2 8.829s7.519 4.557 8.828 4.2a1.6 1.6 0 0 0 .943-.729l.788-1.314a.655.655 0 0 0-.199-.883z" style="fill:#959aa4"/>
            <path data-name="패스 1066" d="M282.792 62.413a5.282 5.282 0 0 1 5.276 5.276.31.31 0 0 0 .621 0 5.9 5.9 0 0 0-5.9-5.9.31.31 0 1 0 0 .621z" transform="translate(-275.551 -59.62)" style="fill:#959aa4"/>
            <path data-name="패스 1067" d="M282.791 115.377a3.418 3.418 0 0 1 3.414 3.414.31.31 0 1 0 .621 0 4.039 4.039 0 0 0-4.034-4.034.31.31 0 0 0 0 .621z" transform="translate(-274.732 -111.608)" style="fill:#959aa4"/>
            <path data-name="패스 1068" d="M282.792 168.344a1.554 1.554 0 0 1 1.552 1.552.31.31 0 1 0 .621 0 2.175 2.175 0 0 0-2.172-2.172.31.31 0 1 0 0 .621z" transform="translate(-274.471 -162.967)" style="fill:#959aa4"/>
        </g>
    </g>
</svg>
