<svg xmlns="http://www.w3.org/2000/svg" width="16" height="16" viewBox="0 0 16 16">
    <path data-name="사각형 13167" style="fill:none" d="M0 0h16v16H0z"/>
    <g data-name="mail (2)">
        <g data-name="그룹 5296">
            <g data-name="그룹 5295">
                <path data-name="패스 1069" d="m357.043 101.721-4.832 4.8 4.832 4.8a1.384 1.384 0 0 0 .14-.6v-8.4a1.384 1.384 0 0 0-.14-.6z" transform="translate(-341.183 -98.522)" style="fill:#959aa4"/>
            </g>
        </g>
        <g data-name="그룹 5298">
            <g data-name="그룹 5297">
                <path data-name="패스 1070" d="M39.518 76H26.324a1.4 1.4 0 0 0-.6.14l6.2 6.144a1.413 1.413 0 0 0 1.989 0l6.2-6.144a1.4 1.4 0 0 0-.595-.14z" transform="translate(-24.921 -73.601)" style="fill:#959aa4"/>
            </g>
        </g>
        <g data-name="그룹 5300">
            <g data-name="그룹 5299">
                <path data-name="패스 1071" d="M.14 101.721a1.384 1.384 0 0 0-.14.6v8.4a1.384 1.384 0 0 0 .14.6l4.832-4.8z" transform="translate(0 -98.522)" style="fill:#959aa4"/>
            </g>
        </g>
        <g data-name="그룹 5302">
            <g data-name="그룹 5301">
                <path data-name="패스 1072" d="m35.266 277.211-.687.684a2.355 2.355 0 0 1-3.316 0l-.687-.684-4.855 4.8a1.4 1.4 0 0 0 .6.14h13.197a1.4 1.4 0 0 0 .6-.14z" transform="translate(-24.921 -268.551)" style="fill:#959aa4"/>
            </g>
        </g>
    </g>
</svg>
